<?xml version="1.0" encoding="utf-8"?>
<!-- Generator: Adobe Illustrator 24.3.0, SVG Export Plug-In . SVG Version: 6.00 Build 0)  -->
<svg version="1.1" id="Layer_1" xmlns="http://www.w3.org/2000/svg" xmlns:xlink="http://www.w3.org/1999/xlink" x="0px" y="0px"
	 viewBox="0 0 512 512" enable-background="new 0 0 512 512" xml:space="preserve">
<title>Elephant</title>
<g>
	<path d="M501.3,341.3c0-4.1,5-17.5,9.6-27.5c1.7-3.7,1.2-8.1-1.4-11.3c-2.6-3.2-6.7-4.6-10.8-3.6c-1.3,0.3-31.1,7.6-47.7,24.2
		c-8.4,8.4-19.5,16.8-37.7,22.4c21.3-18,47.8-43.9,64.7-73.3c20.1-34.6,34-80.7,34-112.2c0-23.9-33.5-39.9-72.2-58.4
		c-23.6-11.3-48.1-22.9-58.6-34.2C348.4,32.4,310.7,0,256,0s-92.5,32.4-125.1,67.4c-10.6,11.3-35,23-58.6,34.2
		C33.5,120.1,0,136.1,0,160c0,33.5,79.7,221.7,137.7,223.8c-1.8,27.1-7,50.7-22.2,65.9c-13.2,13.2-33.6,19.7-62.2,19.7
		c-4.3,0-8.2,2.6-9.9,6.6c-1.7,4-0.7,8.6,2.3,11.6c12.1,12.1,30.1,24.4,71.6,24.4c29.4,0,94.5-15.2,105.1-144.2
		c7.3,12.7,15.9,24.6,26.2,34.5c17.7,17.2,36.4,28.8,55.4,36.2c24.6,66.1,71.4,73.5,90.8,73.5c41.5,0,59.5-12.4,71.6-24.4
		c3.1-3.1,4-7.6,2.3-11.6c-1.6-4-5.5-6.6-9.9-6.6c-38.6,0-56.8-12.1-66.5-24.6c25.3-5.8,47.3-17.3,62.5-31L508,371
		c2.3-1.8,3.7-4.5,4-7.4c0.2-2.9-0.7-5.8-2.7-8C505.6,351.4,501.3,344.3,501.3,341.3z M352,351.5c-17.9-1.2-30.6-5.4-37.4-12.9
		c-2.7-3-4.2-6.6-5.2-10.2c0.6-3.7,3.7-8.3,21.2-8.3c4.8,0,10.9,4.9,21.3,15.2v2.5C352,342.3,352,346.9,352,351.5z M459.7,261.5
		c-23.8,41.2-70,76.5-86.3,88.2c0-4,0-7.9,0-11.9v-7.1c0-0.5-0.2-1-0.3-1.5c0-0.2,0.1-0.4,0.1-0.7l-9.6-44.7
		c11.4-7,31.1-23,31.1-49.1c0-16-4.5-43.1-7.7-60.5c25.8,5.9,75.3,16.5,99.5,17.6C481.3,214.9,471.6,240.7,459.7,261.5z M29.3,191.6
		c25.1-2,70.4-11.7,95-17.3c-3.2,14.4-7,34.9-7,49.7c0,22.4,20.2,40,31,47.7l-9.5,57c-0.1,0.4-0.1,0.9-0.1,1.3c0,0.3,0,0.6,0,0.8
		v6.9c0,8.4,0,16.7-0.2,24.9C108.7,362.2,50.5,251.2,29.3,191.6z M117.3,490.7c-12.8,0-22.6-1.3-30.3-3.3
		c18-3.9,32.4-11.4,43.5-22.6c29.5-29.6,29.5-79.1,29.4-127.1v-2.6c10.6-10.4,16.4-15.1,21.3-15.1c21.3,0,21.3,6.9,21.3,10.7
		C202.7,475.1,143,490.7,117.3,490.7z M424.9,487.3c-7.7,2-17.5,3.3-30.3,3.3c-16.5,0-44.8-6.4-64.3-44.5c9.3,1.8,18.6,2.6,27.7,2.6
		c3.8,0,7.6-0.3,11.3-0.5C381.1,468.5,399.2,481.7,424.9,487.3z M440.8,397.4c-2.6,2.3-5.7,4.7-9,7c-2.6-4.3-4.8-8.4-5.2-10.1
		c-0.2-5.7-4.9-10.3-10.7-10.3c-5.9,0-10.7,4.8-10.7,10.7c0,5.9,3.9,13.8,7.9,20.2c-16.8,7.6-37.8,13-60.8,12.2
		c2-5.8,4.7-11.8,6.2-13.4c4.5-3.6,5.4-10.1,1.9-14.7c-3.5-4.7-10.2-5.7-14.9-2.1c-7.1,5.3-12.1,19-14.5,26.7c-0.1,0.3,0,0.6-0.1,1
		c-14.2-3-28.7-8.7-43.1-18c0-0.1,0-0.1,0.1-0.2c0.4-4.1,2.5-11.2,5.8-13.3c4.9-3.2,6.4-9.8,3.2-14.7c-3.2-5-9.7-6.4-14.7-3.2
		c-6.7,4.3-10.6,11.2-12.8,17.3c-2-1.8-4-3.4-6-5.3c-11.5-11.2-20.7-25.6-28.1-40.6c4.2-2.7,8.4-4.9,10.2-5.1
		c5.8-0.1,10.5-4.8,10.5-10.7c0-5.9-4.8-10.7-10.7-10.7c-6,0-12.9,3.3-18.6,6.7c-9.1-24.1-13.4-47.3-13.4-60.1
		c0-3.8,1-13.5,7.8-35.1c8.5-26.9,1.5-56-18.2-75.7l-3.4-3.4c-4.2-4.2-10.9-4.2-15.1,0c-4.2,4.2-4.2,10.9,0,15.1l3.4,3.4
		c14.1,14.1,19.1,34.9,13,54.2c-6,18.8-8.9,32.4-8.9,41.5c0,8.2,1.6,20.2,4.6,33.6c-4.4-0.9-9.3-1.6-15.3-1.6s-11.3,1.7-16.7,4.8
		l5.8-35.1c0.7-4.3-1.3-8.7-5.1-10.9c-6.9-4.2-26.8-19.2-26.8-33.5c0-21.9,10.2-60.9,10.3-61.3c1-3.6-0.1-7.5-2.7-10.2
		c-2.6-2.7-6.5-3.8-10.1-2.9c-0.9,0.2-84.3,20.2-113.2,21c-1-4.2-1.7-8-1.7-10.6c0-10.5,37.6-28.4,60.1-39.1
		c26.6-12.7,51.7-24.7,65.1-39c29.4-31.5,63-60.6,109.5-60.6s80.1,29.1,109.5,60.6c13.3,14.3,38.5,26.3,65.1,39
		c22.5,10.7,60.1,28.7,60.1,39.1c0,3.3-0.2,6.9-0.6,10.6c-27.8-0.3-113.4-20.8-114.3-21c-3.5-0.9-7.3,0.1-9.9,2.7
		c-2.6,2.5-3.8,6.3-3,9.8c0.1,0.5,10.4,50.3,10.4,72.5c0,21.8-25.9,33.7-26.2,33.8c-4.6,2-7.2,7.1-6.1,12l4.7,22.2
		c-4.8-2.6-9.7-3.9-15.1-3.9c-8.9,0-15.9,1.2-21.6,3.1c0.1-1,0.2-2.3,0.2-3.1c0-2.2,0.8-4.7,2-8.2c4-12.3,10-30.8-2-78.4
		c-0.4-20.8,1.1-27.4,14.8-41.1l3.4-3.4c4.2-4.2,4.2-10.9,0-15.1s-10.9-4.2-15.1,0l-3.4,3.4c-19.6,19.6-21.5,33.3-21.1,57.7
		c0,0.5,0.2,0.8,0.3,1.3c0.1,0.4,0,0.8,0.1,1.2c10.9,42.6,6.2,57.2,2.7,67.8c-1.5,4.6-3,9.3-3,14.9c0,1.5-0.2,3.4-0.4,5.6
		c-0.7,6.5-1.5,16.2,0.5,26.3v0.1c0,0.7,0.3,1.3,0.4,1.9c0.1,0.3,0.1,0.6,0.2,0.9c0.2,0.6,0.3,1.3,0.6,1.8c1.8,6,4.7,12.1,9.7,17.6
		c12.4,13.8,33.3,20.4,63.8,20.4c3.3,0,6.1-0.3,9.2-0.4c0.5,0.1,1,0.4,1.5,0.4c0.6,0,1.1-0.4,1.6-0.5c51.8-2.4,76.1-19.5,91.2-34.6
		c4.3-4.3,10.4-7.9,16.5-10.9c-1.6,5.1-2.7,10.1-2.7,14c0,6.9,3.3,14,6.7,19.4L440.8,397.4z"/>
	<circle cx="181.3" cy="202.7" r="10.7"/>
	<path d="M208.4,65.7c-4.9-3.1-11.6-1.7-14.7,3.3C185,82.5,180,85.3,178.2,85.8c-5.6,1.8-8.8,7.7-7.1,13.3c1.4,4.6,5.6,7.5,10.2,7.5
		c1,0,2.1-0.1,3.1-0.5c9.2-2.8,17.8-11,27.2-25.8C214.8,75.4,213.3,68.8,208.4,65.7z"/>
	<circle cx="330.7" cy="202.7" r="10.7"/>
	<path d="M327.5,106.2c1,0.3,2.1,0.5,3.1,0.5c4.6,0,8.8-2.9,10.2-7.5c1.7-5.6-1.4-11.6-7.1-13.3c-1.8-0.6-6.8-3.3-15.5-16.9
		c-3.2-4.9-9.7-6.4-14.7-3.3c-5,3.2-6.4,9.8-3.3,14.7C309.8,95.2,318.4,103.4,327.5,106.2z"/>
</g>
<desc>
	Elephant;Elephant;pachyderme;pachyderm;rhinocéros;rhinoceros;chameau;camel;lion;lion;aigle;eagle;morse;walrus;girafe;giraffe;mammifère;mammalian;tigre;tiger;léopard;leopard;guépard;cheetah;chat;cat;crinière;mane;panthère;panther;vautour;vulture;carnivore;carnivore;bison;bison;singe;monkey;prédateur;predator;corbeau;raven;corne;horn;hibou;owl;autruche;ostrich;omnivore;omnivore;défense;tusk;queue;tail;braconnage;poach;faucon;hawk;caille;quail;perroquet;parrot;Animaux;Animals;l&amp;#39;éléphant;Elephant;Animaux;Animals;l&amp;#39;éléphant;Elephant;l&amp;#39;éléphant;Elephant
	</desc>
<rect fill-opacity="0" width="512" height="512"/>
</svg>
