<?xml version="1.0" encoding="utf-8"?>
<!-- Generator: Adobe Illustrator 24.3.0, SVG Export Plug-In . SVG Version: 6.00 Build 0)  -->
<svg version="1.1" id="Layer_1" xmlns="http://www.w3.org/2000/svg" xmlns:xlink="http://www.w3.org/1999/xlink" x="0px" y="0px"
	 viewBox="0 0 512 512" enable-background="new 0 0 512 512" xml:space="preserve">
<title>Rhinocéros</title>
<g>
	<path d="M149.3,170.7c-17.6,0-32,14.4-32,32s14.4,32,32,32s32-14.4,32-32S167,170.7,149.3,170.7z M149.3,213.3
		c-5.9,0-10.7-4.8-10.7-10.7s4.8-10.7,10.7-10.7s10.7,4.8,10.7,10.7C160,208.6,155.2,213.3,149.3,213.3z"/>
	<circle cx="160" cy="405.3" r="21.3"/>
	<path d="M428.8,148.9c1.7,0.3,3.5,0.4,5.2,0.4c13.7,0,28.1-7.8,40.4-22.1c24-27.9,33.7-72.5,22.1-101.4
		c-5.7-14.2-15.9-23.2-28.7-25.3c-15.4-2.5-32.1,5.4-46.1,21.6c-0.4,0.4-0.7,0.9-1,1.4c-0.5,0.3-1.1,0.6-1.5,1l-56.8,56.8
		c-26.1-22.2-63.6-37.8-93.6-38.4c-1.3-14-2-25.2-2-32.1C266.7,4.8,261.9,0,256,0s-10.7,4.8-10.7,10.7c0,7-0.7,18.1-2,32.1
		c-30,0.7-67.5,16.2-93.7,38.4L92.9,24.5c-0.4-0.4-1-0.6-1.5-1c-0.4-0.4-0.7-0.9-1-1.4C76.4,5.8,59.7-2,44.2,0.5
		c-12.8,2.1-23,11.1-28.7,25.3C4,54.8,13.7,99.3,37.7,127.2c12.2,14.3,26.7,22.1,40.4,22.1c1.7,0,3.5-0.2,5.2-0.4
		c0.7,0.1,1.4,0.4,2.1,0.4h1.4l-17.9,26.8C58.3,192,57,212.5,65.5,229.6L94.7,288l-29.2,58.4c-8.6,17.1-7.3,37.5,3.3,53.4l58.9,88.4
		c9.9,14.9,26.5,23.7,44.4,23.7h167.7c17.9,0,34.5-8.9,44.4-23.8l58.9-88.4c10.6-15.9,11.8-36.4,3.3-53.4L417.3,288l29.2-58.4
		c8.6-17.1,7.3-37.5-3.3-53.4l-17.9-26.8h1.4C427.4,149.3,428.1,149.1,428.8,148.9z M462,21.3c0.8,0,1.6,0,2.3,0.2
		c6.6,1.1,10.4,7.3,12.4,12.2c8.6,21.5,0.1,57.9-18.5,79.6c-8.9,10.3-18.8,15.7-26.4,14.5c-6.6-1.1-10.4-7.3-12.4-12.2
		c-8.6-21.5-0.1-57.9,18.5-79.6C445.8,26.7,454.7,21.3,462,21.3z M35.4,33.7c2-5,5.8-11.1,12.4-12.2c0.7-0.1,1.5-0.2,2.3-0.2
		c7.3,0,16.1,5.3,24.2,14.7c18.6,21.7,27,58.1,18.4,79.6c-2,5-5.8,11.1-12.4,12.2c-7.7,1.3-17.5-4.2-26.4-14.5
		C35.2,91.7,26.8,55.2,35.4,33.7z M425.4,188c6.4,9.5,7.1,21.8,2,32.1l-31.6,63.2c-1.5,3-1.5,6.5,0,9.5l31.6,63.2
		c5.1,10.2,4.4,22.5-2,32.1l-58.9,88.4c-6,8.9-15.9,14.3-26.6,14.3H172.2c-10.7,0-20.7-5.3-26.6-14.3l-59-88.5
		c-6.4-9.5-7.1-21.8-2-32.1l31.6-63.2c1.5-3,1.5-6.5,0-9.5L84.6,220c-5.1-10.2-4.4-22.5,2-32.1l28.9-43.4c2.2-3.3,2.4-7.5,0.5-10.9
		c-1.3-2.5-3.7-4-6.4-4.8c0.9-1.8,2-3.4,2.8-5.3c5.3-13.2,5.9-29.6,3-46.3l26.3,26.3c2.1,2.1,4.8,3.1,7.6,3.1s5.5-1,7.6-3.1
		c21.4-21.4,56.8-37.7,84.2-39.2c-10.3,93.2-37.4,261-56.6,280.1c-4.2,4.2-4.2,10.9,0,15.1s10.9,4.2,15.1,0
		c21.7-21.7,43.8-148.7,56.4-244.2c12.7,95.5,34.8,222.5,56.4,244.2c2.1,2.1,4.8,3.1,7.6,3.1s5.5-1,7.6-3.1c4.2-4.2,4.2-10.9,0-15.1
		c-19.2-19.2-46.3-186.9-56.6-280.1c27.4,1.6,62.8,17.8,84.2,39.2c2.1,2.1,4.8,3.1,7.6,3.1s5.5-1,7.5-3.1l26.3-26.3
		c-2.9,16.6-2.2,33.1,3.1,46.3c0.8,2,1.8,3.6,2.8,5.3c-2.7,0.8-5.1,2.3-6.4,4.8c-1.9,3.5-1.7,7.7,0.5,10.9L425.4,188z"/>
	<path d="M362.7,170.7c-17.6,0-32,14.4-32,32s14.4,32,32,32s32-14.4,32-32S380.3,170.7,362.7,170.7z M362.7,213.3
		c-5.9,0-10.7-4.8-10.7-10.7s4.8-10.7,10.7-10.7s10.7,4.8,10.7,10.7C373.3,208.6,368.5,213.3,362.7,213.3z"/>
	<circle cx="352" cy="405.3" r="21.3"/>
</g>
<desc>Rhyno;Animaux;Animals;Animaux;Animals;Rhyno;Rhyno;Rhyno;Animaux;Animals</desc>
<rect fill-opacity="0" width="512" height="512"/>
</svg>
