<?xml version="1.0" encoding="utf-8"?>
<!-- Generator: Adobe Illustrator 24.3.0, SVG Export Plug-In . SVG Version: 6.00 Build 0)  -->
<svg version="1.1" id="Layer_1" xmlns="http://www.w3.org/2000/svg" xmlns:xlink="http://www.w3.org/1999/xlink" x="0px" y="0px"
	 viewBox="0 0 512 512" enable-background="new 0 0 512 512" xml:space="preserve">
<title>Lion</title>
<g>
	<path d="M256,85.3c-140.7,0-180.4,112.8-180.8,113.9c-1,3-0.6,6.4,1.1,9.1l53.3,85.3c2.7,4.4,8.2,6.1,13,4.2l21.4-8.6l-23.6,35.4
		c-2.3,3.4-2.4,7.9-0.3,11.4l64,106.7c1.9,3.2,5.4,5.2,9.2,5.2h85.3c3.8,0,7.2-2,9.2-5.2l64-106.7c2.1-3.5,2-8-0.3-11.4L351.1,294
		l6.7,3.4c4.9,2.5,10.9,0.8,13.8-3.9l53.3-85.3c1.5-2.4,2-5.4,1.3-8.1C426.1,199.1,397.5,85.3,256,85.3z M292.6,426.7h-73.3l-8-13.3
		l44.6-17.9l44.6,17.8L292.6,426.7z M248.1,323.2l7.9-2.6l7.9,2.6l-7.9,5.3L248.1,323.2z M358.8,274.1l-34-17
		c-4.3-2.2-9.6-1.2-12.8,2.5c-3.2,3.6-3.6,9-0.9,13L350,331l-38.3,63.8l-45.1-18v-29.7l27.3-18.2c3.4-2.3,5.2-6.2,4.6-10.3
		c-0.5-4.1-3.3-7.4-7.2-8.7l-32-10.7c-2.2-0.7-4.5-0.7-6.7,0l-32,10.7c-3.9,1.3-6.6,4.7-7.2,8.7c-0.6,4,1.3,8,4.7,10.3l27.2,18.2
		v29.7l-45.1,18L162,331l38.9-58.4c2.6-3.9,2.3-9-0.6-12.6c-3-3.6-7.9-4.9-12.2-3.2l-45.1,18l-45.8-73.2
		c8.4-19.7,47.8-94.9,158.8-94.9s142.3,75.5,148.4,94.4L358.8,274.1z"/>
	<path d="M288,202.7V224c0,5.9,4.8,10.7,10.7,10.7c3,0,5.7-1.2,7.6-3.2c4.2,2,8.8,3.2,13.7,3.2c17.6,0,32-14.4,32-32
		c0-0.7-0.2-1.3-0.2-2c10.1,3.8,20.3,8.2,27.7,11.6c1.5,0.7,3,1,4.5,1c4,0,7.8-2.3,9.7-6.1c2.5-5.3,0.2-11.7-5.1-14.2
		c-4.9-2.3-48.1-22.3-68.5-22.3C302.4,170.7,288,185,288,202.7z M330.7,202.7c0,5.9-4.8,10.7-10.7,10.7s-10.7-4.8-10.7-10.7
		S314.1,192,320,192S330.7,196.8,330.7,202.7z"/>
	<path d="M192,170.7c-20.5,0-63.7,20.1-68.5,22.3c-5.3,2.5-7.6,8.9-5.1,14.2c1.8,3.9,5.7,6.1,9.7,6.1c1.5,0,3.1-0.3,4.5-1
		c7.4-3.5,17.6-7.8,27.7-11.6c0,0.7-0.2,1.3-0.2,2c0,17.6,14.4,32,32,32c4.9,0,9.6-1.2,13.7-3.2c1.9,2,4.6,3.2,7.6,3.2
		c5.9,0,10.7-4.8,10.7-10.7v-21.3C224,185,209.6,170.7,192,170.7z M192,213.3c-5.9,0-10.7-4.8-10.7-10.7s4.8-10.7,10.7-10.7
		s10.7,4.8,10.7,10.7C202.7,208.6,197.9,213.3,192,213.3z"/>
	<path d="M330.7,0c-37.4,0-51.9,2.9-74.7,10.1C233.2,2.9,218.8,0,181.3,0C135.8,0,10.7,48,10.7,202.7c0,191.4,64.2,260.5,67,263.4
		c3,3.2,7.7,4.1,11.7,2.5s6.7-5.5,6.7-9.9v-16.9l45.8,45.8c4.2,4.2,10.9,4.2,15.1,0l15.9-15.9l78.5,39.2c1.5,0.7,3.1,1.1,4.8,1.1
		c1.6,0,3.3-0.4,4.8-1.1l78.5-39.2l15.9,15.9c4.2,4.2,10.9,4.2,15.1,0l45.8-45.8v16.9c0,4.4,2.6,8.3,6.7,9.9c4,1.6,8.6,0.6,11.7-2.5
		c2.7-2.8,67-72,67-263.4C501.3,49.9,374.4,0,330.7,0z M430.7,406.2c-4-1.7-8.6-0.7-11.6,2.3l-56.4,56.4l-13.8-13.8
		c-3.2-3.2-8.2-4-12.3-2L256,489.4l-80.6-40.3c-1.5-0.8-3.2-1.1-4.8-1.1c-2.8,0-5.5,1.1-7.6,3.1l-13.8,13.8l-56.4-56.5
		c-3.1-3.1-7.6-3.9-11.6-2.3s-6.6,5.5-6.6,9.9v6.6C56.7,387.8,32,318.8,32,202.7C32,54.8,158.1,21.3,181.3,21.3
		c36.3,0,48.4,2.8,71.4,10.2c2.1,0.7,4.4,0.7,6.5,0c23-7.4,35.1-10.2,71.4-10.2c23.2,0,149.3,33.4,149.3,181.3
		c0,116.1-24.7,185.1-42.7,219.9V416C437.3,411.7,434.7,407.8,430.7,406.2z"/>
</g>
<desc>
	Lion;Lion;guépard;cheetah;éléphant;elephant;léopard;leopard;tigre;tiger;panthère;panther;crinière;mane;chat;cat;aigle;eagle;singe;monkey;rhinocéros;rhinoceros;queue;tail;pachyderme;pachyderm;mammifère;mammalian;chameau;camel;panda;panda;morse;walrus;carnivore;carnivore;girafe;giraffe;ringtail;ringtail;vautour;vulture;orang-outan;orangutan;primate;primate;leonine;leonine;gorilla;gorilla;fourmilier;anteater;prédateur;predator;braconnage;poach;chimpanzé;chimpanzee;autruche;ostrich;zèbre;zebra;Animaux;Animals
	</desc>
<rect fill-opacity="0" width="512" height="512"/>
</svg>
