<?xml version="1.0" encoding="utf-8"?>
<!-- Generator: Adobe Illustrator 24.3.0, SVG Export Plug-In . SVG Version: 6.00 Build 0)  -->
<svg version="1.1" id="Layer_1" xmlns="http://www.w3.org/2000/svg" xmlns:xlink="http://www.w3.org/1999/xlink" x="0px" y="0px"
	 viewBox="0 0 512 512" enable-background="new 0 0 512 512" xml:space="preserve">
<title>Hippopotame</title>
<g>
	<path d="M106.7,202.6c0,17.6,14.4,32,32,32s32-14.3,32-32s-14.4-32-32-32S106.7,184.9,106.7,202.6z M149.3,202.6
		c0,5.9-4.8,10.7-10.7,10.7s-10.7-4.8-10.7-10.7s4.8-10.7,10.7-10.7S149.3,196.7,149.3,202.6z"/>
	<path d="M341.3,202.6c0,17.6,14.4,32,32,32s32-14.4,32-32s-14.4-32-32-32C355.7,170.6,341.3,184.9,341.3,202.6z M384,202.6
		c0,5.9-4.8,10.7-10.7,10.7s-10.7-4.8-10.7-10.7s4.8-10.7,10.7-10.7S384,196.7,384,202.6z"/>
	<path d="M455.5,24.4C425.1-6.1,398.2-1.3,384.7,4.2c-21.1,8.7-37.2,31-41.9,55.8c-26-11-55.5-17.4-86.8-17.4s-60.7,6.4-86.9,17.5
		c-4.7-24.9-20.8-47.1-41.9-55.9C113.9-1.3,86.9-6.1,56.5,24.3c-13.9,13.9-15.1,28-13.8,37.4c3.9,26.6,32.8,48.5,48.8,58.8
		c-17.3,24-27.5,52-27.5,82c0,46.2,13.4,82.5,39.6,108.3c-15,24.8-21.8,56.1-7,97.9c22.3,63.1,56,72.4,89.8,69.8
		c7.3,6.5,39,33.4,69.6,33.4c31.2,0,63.5-27.8,69.9-33.6c3.1,0.2,6.2,0.7,9.3,0.7c30.5,0,60-13.1,80.3-70.2c14.8-41.8,8-73.1-7-97.9
		c26.2-25.8,39.6-62.1,39.6-108.3c0-30-10.1-58-27.5-82c16-10.3,44.9-32.2,48.8-58.8C470.7,52.4,469.4,38.2,455.5,24.4z M63.8,58.6
		c-0.6-4.3-0.5-11,7.7-19.2c16.3-16.3,32.7-21.6,47.6-15.5c16,6.6,28.2,25.8,29.9,45.9c-16.7,9.4-31.4,21-43.8,34.1
		C90.8,94.8,66.4,76.2,63.8,58.6z M256,490.6c-13.2,0-28.6-8.2-40.5-16.3c0.3-0.1,0.7-0.1,1-0.2c13.1-2.4,26.5-4.9,39.5-4.9
		c12.9,0,26.4,2.5,39.5,4.9c0.3,0.1,0.7,0.1,1,0.2C284.7,482.4,269.2,490.6,256,490.6z M395.8,293.4c-12.4-14.7-27-26.8-40.1-37.6
		C336.5,240,320,226.4,320,213.2c0-42.8,35.9-64.6,37.4-65.5c5.1-3,6.8-9.5,3.8-14.6c-3-5.1-9.5-6.8-14.6-3.8
		c-2,1.2-48,28.6-48,83.9c0,23.2,21.1,40.6,43.5,59.1c35.9,29.6,76.6,63.1,53.1,129.4c-22.9,64.9-53.6,59.3-95.9,51.5
		c-14-2.6-28.5-5.2-43.3-5.2c-14.9,0-29.3,2.7-43.3,5.2c-42.3,7.8-73,13.4-95.9-51.5c-23.5-66.3,17.2-99.8,53.1-129.4
		c22.4-18.4,43.5-35.8,43.5-59.1c0-55.3-46-82.8-48-83.9c-5.1-2.9-11.6-1.3-14.6,3.8s-1.3,11.6,3.8,14.6
		c1.5,0.9,37.4,22.7,37.4,65.5c0,13.2-16.5,26.8-35.7,42.6c-13,10.7-27.7,22.9-40.1,37.6c-20.5-21.6-30.9-52.1-30.9-90.9
		C85.3,126,161.9,63.8,256,63.8S426.7,126,426.7,202.5C426.7,241.4,416.3,271.8,395.8,293.4z M448.2,58.6
		c-2.6,17.7-26.7,36.1-41.3,45.3c-12.4-13.2-27.1-24.7-43.8-34.1c1.7-20.1,13.9-39.3,29.9-45.9c14.9-6.1,31.3-0.8,47.6,15.5
		C448.7,47.7,448.8,54.3,448.2,58.6z"/>
	<path d="M160,341.2c-5.9,0-10.7,4.8-10.7,10.7c0,5.9,4.8,10.7,10.7,10.7c13.8,0,32,22,32,32c0,5.9,4.8,10.7,10.7,10.7
		s10.7-4.8,10.7-10.7C213.3,372.5,185.8,341.2,160,341.2z"/>
	<path d="M309.3,405.2c5.9,0,10.7-4.8,10.7-10.7c0-10,18.2-32,32-32c5.9,0,10.7-4.8,10.7-10.7c0-5.9-4.8-10.7-10.7-10.7
		c-25.7,0-53.3,31.3-53.3,53.3C298.7,400.4,303.5,405.2,309.3,405.2z"/>
</g>
<desc>Hipo;Animaux;Animals;Animaux;Animals;Hipo;Hipo;Hipo;Animaux;Animals</desc>
<rect fill-opacity="0" width="512" height="512"/>
</svg>
