<?xml version="1.0" encoding="utf-8"?>
<!-- Generator: Adobe Illustrator 24.3.0, SVG Export Plug-In . SVG Version: 6.00 Build 0)  -->
<svg version="1.1" id="Layer_1" xmlns="http://www.w3.org/2000/svg" xmlns:xlink="http://www.w3.org/1999/xlink" x="0px" y="0px"
	 viewBox="0 0 512 512" enable-background="new 0 0 512 512" xml:space="preserve">
<title>Tortue</title>
<path d="M458.7,170.7c-31.2,0-57.7,15.2-66.7,21c-16.1-39.2-44.7-52.8-76-62.2c4-14.6,4-30.8,4-44.2C320,39.9,290.1,0,256,0
	s-64,39.9-64,85.3c0,13.4,0.1,29.6,4,44.2c-31.2,9.3-59.9,22.9-76,62.2c-9.1-5.8-35.6-21-66.7-21c-34.4,0-49.8,33.6-53.2,51.3
	c-1.1,5.8,2.6,11.3,8.4,12.4l98.9,19.8c-0.5,7.3-0.8,14.9-0.8,23.1c0,2.9,0.4,5.5,0.5,8.3c-0.2,0.8-0.5,1.5-0.5,2.4
	c0,1.5,0.3,2.9,0.9,4.2c2.9,38.2,16.6,69.5,35,94.2C97.2,398,64,453.1,64,501.3c0,5.9,4.8,10.7,10.7,10.7c3.6,0,14.7-0.1,122.2-75.7
	c5.8,3.6,11.4,6.7,16.9,9.5c-0.2,0.9-0.5,1.9-0.4,2.9c1.4,23.6,11.9,63.4,42.6,63.4s41.3-39.8,42.6-63.4c0.1-1-0.2-1.9-0.4-2.9
	c5.5-2.7,11.1-5.9,16.9-9.5C422.7,511.9,433.7,512,437.3,512c5.9,0,10.7-4.8,10.7-10.7c0-48.2-33.2-103.3-78.5-115
	c18.4-24.7,32.1-56,35-94.2c0.5-1.3,0.9-2.7,0.9-4.2c0-0.8-0.3-1.6-0.5-2.4c0.1-2.8,0.5-5.4,0.5-8.3c0-8.2-0.3-15.8-0.8-23.1
	l98.8-19.8c5.7-1.2,9.5-6.7,8.4-12.4C508.5,204.3,493.1,170.7,458.7,170.7z M384,277.3h-46.7l-25.9-51.9l43.4-52.1
	C372.7,190.9,384,220.6,384,277.3z M335.6,392.8l-24.8-41.3l26.4-52.9h45.4C377.6,340.1,358,370.9,335.6,392.8z M256,437.3
	c-8.7,0-36-9.3-63.2-30.3l26.6-44.4h73.2l26.6,44.4C292,428,264.7,437.3,256,437.3z M129.3,298.7h45.4l26.4,52.9l-24.8,41.3
	C154,370.9,134.4,340.1,129.3,298.7z M219.9,234.7H292l26.7,53.3L292,341.3h-72.1L193.3,288L219.9,234.7z M256,21.3
	c21.9,0,42.7,31.1,42.7,64c0,39.8-2.9,64-42.7,64s-42.7-24.2-42.7-64C213.3,52.4,234.1,21.3,256,21.3z M256,170.7
	c26.5,0,41.9-8.9,51-21.6c10.9,3.2,21.2,6.7,30.5,11.7l-43.8,52.6h-75.3l-43.8-52.6c9.3-5,19.6-8.5,30.5-11.7
	C214.1,161.8,229.5,170.7,256,170.7z M157.2,173.4l43.4,52.1l-25.9,51.8H128C128,220.6,139.3,190.9,157.2,173.4z M24.3,215.9
	c4.1-10,12.6-23.9,29-23.9c30.6,0,57.5,19.1,57.7,19.3c0.7,0.5,1.6,0.7,2.4,1.1c-1.5,6.3-2.8,13.2-3.9,20.5L24.3,215.9z M86.9,484.1
	c7.2-41.4,39.2-77.8,71.9-78.6c6.3,6.5,12.9,12.4,19.6,17.7C143.3,447.7,106.1,472.6,86.9,484.1z M256,490.7
	c-12.7,0-18.5-22.7-20.5-36c8.1,2.6,15.3,4,20.5,4c5.2,0,12.4-1.4,20.5-4C274.5,468,268.8,490.7,256,490.7z M425.1,483.8
	c-20-11.8-56.8-36.4-91.4-60.6c6.7-5.3,13.2-11.2,19.6-17.7C385.9,406.4,417.8,442.5,425.1,483.8z M402.4,232.9
	c-1-7.4-2.3-14.2-3.9-20.5c0.8-0.3,1.6-0.6,2.4-1.1c0.3-0.2,26.9-19.3,57.7-19.3c16.4,0,25,13.8,29.1,23.9L402.4,232.9z"/>
<desc>
	Tortue;Turtle;grenouille;frog;terrapin;terrapin;aquatique;aquatic;crapaud;toad;lézard;lizard;amphibien;amphibian;crocodile;crocodile;tortue;tortoise;têtard;tadpole;marine;marine;amphibie;amphibia;reptile;reptile;bullfrog;bullfrog;caméléon;chameleon;subaquatique;subaquatic;serpent;snake;coquille;shell;piscine;pool;eau douce;freshwater;sous l&amp;#39;eau;underwater;opercule;operculum;poisson;fish;ichtyologiste;ichthyologist;herpétologie;herpetology;sous-espèce;subspecies;submersible;submersible;huître;oyster;crustacés;shellfish;herpétologue;herpetologist;offshore;offshore;Animaux;Animals;Animaux;Animals;Tortue;Turtle;Animaux;Animaux;Animals
	</desc>
<rect fill-opacity="0" width="512" height="512"/>
</svg>
