<?xml version="1.0" encoding="utf-8"?>
<!-- Generator: Adobe Illustrator 24.3.0, SVG Export Plug-In . SVG Version: 6.00 Build 0)  -->
<svg version="1.1" id="Layer_1" xmlns="http://www.w3.org/2000/svg" xmlns:xlink="http://www.w3.org/1999/xlink" x="0px" y="0px"
	 viewBox="0 0 512 512" enable-background="new 0 0 512 512" xml:space="preserve">
<title>Hibou</title>
<g>
	<path d="M160,213.3c-17.6,0-32,14.4-32,32s14.4,32,32,32s32-14.4,32-32S177.6,213.3,160,213.3z M160,256c-5.9,0-10.7-4.8-10.7-10.7
		s4.8-10.7,10.7-10.7s10.7,4.8,10.7,10.7S165.9,256,160,256z"/>
	<path d="M352,277.3c17.6,0,32-14.4,32-32s-14.4-32-32-32s-32,14.4-32,32S334.4,277.3,352,277.3z M352,234.7
		c5.9,0,10.7,4.8,10.7,10.7s-4.8,10.7-10.7,10.7s-10.7-4.8-10.7-10.7C341.3,239.5,346.1,234.7,352,234.7z"/>
	<path d="M309.3,362.7c-15,0-35.1-23.1-44.3-37.7c-3.9-6.2-14.2-6.2-18.1,0c-9.2,14.5-29.2,37.7-44.3,37.7c-3.9,0-7.5,2.1-9.3,5.5
		c-1.9,3.4-1.8,7.5,0.3,10.8l53.3,85.3c1.9,3.1,5.4,5,9,5c3.7,0,7.1-1.9,9-5l53.3-85.3c2.1-3.3,2.2-7.4,0.3-10.8
		C316.8,364.8,313.2,362.7,309.3,362.7z M256,438.6l-36.5-58.4c15.1-6.6,28.2-20.6,36.5-31.1c8.3,10.5,21.4,24.5,36.5,31.1
		L256,438.6z"/>
	<path d="M428.7,368c26.4-26.5,62-71.7,62-122.6c0-63.2-35.1-97.9-51-110.4c32.7-24.5,60.2-58.9,70.6-113c1.2-3.6,1.7-7.3,1.7-11.3
		c0-5.6-4.3-10.2-9.9-10.6c-5.5-0.4-10.5,3.6-11.3,9.1c-0.3,2.4-0.7,4.7-1.1,7c-6.5,17.3-42.7,34.3-80.8,52.3
		C396,74.6,382.5,81,369.1,87.8c-0.8-0.6-1.7-1.3-2.8-1.7C363.7,85.1,304,64,256,64S148.3,85.1,145.7,85.9c-1.1,0.4-1.9,1-2.8,1.7
		c-13.4-6.8-26.9-13.2-39.8-19.3C65,50.3,28.8,33.3,22.3,16c-0.4-2.3-0.8-4.6-1.1-7c-0.8-5.4-5.6-9.4-11.3-9C4.3,0.5,0,5.1,0,10.7
		c0,3.9,0.6,7.7,1.7,11.3c10.4,54.1,37.8,88.5,70.5,113c-15.8,12.5-51,47.2-51,110.4c0,51,35.6,96.1,62,122.6
		C60.9,380.7,0,422.5,0,501.3c0,5.9,4.8,10.7,10.7,10.7s10.7-4.8,10.7-10.7c0-78.3,71.1-114.5,78.4-118c2.8,2.4,5.3,4.5,7.1,6
		c3.7,51.9,61,122.7,149.1,122.7s145.4-70.8,149.1-122.7c1.8-1.5,4.3-3.6,7.1-6c6.7,3.3,78.5,40.3,78.5,118
		c0,5.9,4.8,10.7,10.7,10.7c5.9,0,10.7-4.8,10.7-10.7C512,422.5,451.1,380.7,428.7,368z M417.9,87.6c22.6-10.6,43.2-20.3,59.3-30.5
		c-26,57.9-79.5,81.4-131.5,104.2c-26.8,11.8-52.7,23.1-72.7,38.9C293.7,146.2,361.5,114.2,417.9,87.6z M279.7,226.4
		c0.4-1.4,0.4-2.7,0.2-4c18.5-16.9,45.8-28.9,74.3-41.4c5.6-2.5,11.4-5,17.1-7.6c39.5,10.7,63.1,51.3,52.8,91
		c-10.5,39.8-51.4,63.7-91.1,53.3C293.2,307.1,269.3,266.2,279.7,226.4z M256,85.3c30.4,0,67.5,9.7,87.8,15.8
		c-37.5,21.4-71.3,47.9-87.8,84.2c-16.5-36.3-50.4-62.8-87.9-84.2C188.5,95,225.5,85.3,256,85.3z M232.2,226.4
		c10.4,39.8-13.5,80.7-53.3,91.2c-39.8,10.4-80.7-13.5-91.1-53.3c-10.4-39.6,13.3-80.3,52.8-91c5.8,2.6,11.5,5.2,17.1,7.6
		c28.5,12.5,55.7,24.5,74.3,41.4C231.8,223.7,231.9,225,232.2,226.4z M34.8,57.1C50.9,67.3,71.5,77,94.1,87.7
		c56.4,26.5,124.3,58.5,145,112.6c-20.1-15.8-46-27.1-72.7-38.9C114.3,138.5,60.9,115.1,34.8,57.1z M388.3,375.5
		c-2.7,2-4.3,5.2-4.3,8.5c0,42.5-51.1,106.7-128,106.7S128,426.5,128,384c0-3.3-1.6-6.5-4.3-8.5c-0.8-0.6-81.1-61.6-81.1-130.1
		c0-67.3,46.2-96.3,48.1-97.5c0.1,0,0.1-0.1,0.2-0.2c7.8,4.8,15.8,9.2,23.7,13.3C76.4,181.5,55.5,226,67,269.7
		c11.3,43.1,50.3,71.7,92.9,71.7c8,0,16.2-1,24.3-3.1c43.1-11.3,71.3-50.4,71.3-92.9c0.1,0,0.3,0.1,0.4,0.1c0.1,0,0.2,0,0.4,0
		c0,42.6,28.3,81.6,71.3,92.9c8.1,2.1,16.3,3.1,24.3,3.1c42.6,0,81.6-28.6,92.8-71.7c11.5-43.7-9.4-88.2-47.6-108.7
		c8-4.1,15.9-8.5,23.7-13.3c0.1,0.1,0.1,0.1,0.2,0.2c0.5,0.3,48.1,29.7,48.1,97.5C469.3,313.7,389.1,374.9,388.3,375.5z"/>
</g>
<desc>
	Owl;Owl;choucas;jackdaw;picorer;peck;faucon;falcon;robin;robin;faucon;hawk;aigle;eagle;nocturne;nocturnal;skylark;skylark;nocturne;nocturnally;nid;nest;bluebird;bluebird;vautour;vulture;caille;quail;raptor;raptor;perroquet;parrot;bec;beak;pinson;finch;volant;volant;mockingbird;mockingbird;corbeau;raven;pigeon;pigeon;bécasse;woodcock;colombe;dove;alouette;lark;coo;coo;moineau;sparrow;dinde;turkey;poussin;chick;oiseau;bird;l&amp;#39;éléphant;elephant;Animaux;Animals;Animaux;Animals;Hibou;Owl;Animaux;Hibou;Owl;Animaux;Animals
	</desc>
<rect fill-opacity="0" width="512" height="512"/>
</svg>
