<?xml version="1.0" encoding="utf-8"?>
<!-- Generator: Adobe Illustrator 24.3.0, SVG Export Plug-In . SVG Version: 6.00 Build 0)  -->
<svg version="1.1" id="Layer_1" xmlns="http://www.w3.org/2000/svg" xmlns:xlink="http://www.w3.org/1999/xlink" x="0px" y="0px"
	 viewBox="0 0 512 512" enable-background="new 0 0 512 512" xml:space="preserve">
<title>Aigle</title>
<g>
	<path d="M508.4,376c-0.4-0.4-39-36.7-39-173.3C469.4,48.6,327.6,32,266.7,32c-54.1,0-101.4,3.7-133.1,43c-1.9-0.1-3.5-0.3-5.6-0.3
		C75.9,74.7,0,120.4,0,192c0,74.1,38.4,84.6,40.1,85c0.9,0.2,1.7,0.3,2.6,0.3c2.6,0,5.1-0.9,7-2.6c2.6-2.3,4-5.7,3.6-9.2
		c0-0.2-0.7-7-0.1-16.6c13-18.9,55.7-23.7,96.3-24.7c0,1.7,0.3,3.3,1.1,4.9c0.1,0.2,9.4,18,9.4,48.3c0,25.7-8.9,37.7-19.1,51.6
		c-11,15-23.6,32.1-23.6,65.7c0,60.4,10.6,78,12.7,80.9c2,2.8,5.3,4.4,8.6,4.4c1.2,0,2.5-0.2,3.7-0.7c2.4-0.9,51.6-19.9,66.6-66.9
		c30.4,33.3,87.7,62.5,95.6,66.5c3.2,1.6,7,1.5,10.1-0.3s5.1-5,5.3-8.6c0.1-2.1,0.6-19-12.1-60.4c49.9,21.5,138.1,27.1,150.2,27.8
		c4.8,0.4,8.3-2.1,10.2-5.9c1.9-3.8,1.4-8.4-1.4-11.6c-0.1-0.1-9.8-11.9-15.2-27.3c21.7,6,47.4,2.6,51.2,2.1
		c4.1-0.6,7.4-3.5,8.6-7.5C512.7,383.1,511.5,378.7,508.4,376z M21.4,192c0-62.1,70.5-96,106.7-96c42.7,0,42.7,16,42.7,21.3
		c0,1,0,1.4-5,4.8c-6.1,4.2-16.4,11.1-16.4,27.2c0,2.9,0,6.7,3.1,10.7h-35.1c-26.5,0-47.5,8.4-62.4,25.1
		c-15.8,17.7-21.1,40.9-22.7,58.3C26.6,234,21.4,218.2,21.4,192z M445,365.8c-3-3-7.6-4-11.6-2.3c-4,1.6-6.6,5.5-6.6,9.9
		c0,15.6,5.6,30.2,11.3,41.1c-53.5-4.8-125.8-17.4-141.7-37.1c-3.3-4.1-9-5.1-13.5-2.6c-4.5,2.6-6.6,8-4.8,12.9
		c10.6,29.4,15.8,49.7,18.3,62.6c-29.7-16.8-74.6-46.3-83.7-70.1c-1.8-4.8-6.9-7.6-11.9-6.7c-5.1,0.9-8.7,5.4-8.7,10.5
		c0,40-31.3,62.1-47.6,70.8c-2.6-9.4-5.8-27.8-5.8-60.2c0-26.7,9-38.9,19.4-53.1c10.9-14.8,23.2-31.6,23.2-64.2
		c0-26.5-6.2-45.1-9.7-53.4c6,0,11.8,0,17.3,0h13.7c5.9,0,10.7-4.8,10.7-10.7s-4.8-10.7-10.7-10.7H189
		c-44.2-0.2-96.2-0.4-129.2,14.9c2.6-6.5,6-12.8,10.9-18.2c10.7-11.9,26.3-18,46.5-18H288c5.9,0,10.7-4.8,10.7-10.7
		s-4.8-10.7-10.7-10.7c-74,0-109.8-7.2-117.2-12.5c0.4-3.2,2.3-4.6,6.9-7.7c5.7-3.9,14.3-9.7,14.3-22.4c0-0.1,0-0.1,0-0.2
		c16.4-0.6,26.2-2.4,33.1-5.2c2.4,9.2,10.4,16.1,20.3,16.1c11.8,0,21.3-9.6,21.3-21.3c0-3.6-1.1-6.9-2.7-9.9
		c6.3-0.5,14.1-0.8,24.1-0.8c5.9,0,10.7-4.8,10.7-10.7c0-5.9-4.8-10.7-10.7-10.7c-43.9,0-54.4,5.6-64.4,13.5
		c-4.7,3.7-9.8,7.4-37.6,7.8c-4.8-7.3-13.1-13.7-26.7-17.5c25.6-22.9,61.4-25.1,107.3-25.1c67.7,0,181.3,19.4,181.3,149.3
		c0,98.1,19.4,148.6,33.2,172C467,374.6,451.6,372.4,445,365.8z"/>
	<circle cx="117.4" cy="128" r="10.7"/>
	<path d="M368.4,268.4c-14.8-9.4-12.8-25.6-8.3-47.5c1.4-6.9,2.6-12.8,2.6-18.2c0-5.9-4.8-10.7-10.7-10.7c-5.9,0-10.7,4.8-10.7,10.7
		c0,3.2-1.1,8.4-2.2,13.9c-3.9,19.4-10.5,51.8,17.8,69.8c1.8,1.1,3.8,1.7,5.7,1.7c3.5,0,7-1.7,9-4.9
		C374.9,278.1,373.4,271.5,368.4,268.4z"/>
	<path d="M236.3,266.8c-5.8-0.9-11.3,3.1-12.2,8.9c-5.6,36.6-9.4,51.8-23.9,55.2c-5.7,1.4-9.3,7.1-7.9,12.8
		c1.1,4.9,5.5,8.2,10.4,8.2c0.8,0,1.6-0.1,2.4-0.3c30-7.1,34.7-37.5,40.1-72.8C246.1,273.1,242.1,267.7,236.3,266.8z"/>
	<path d="M362.7,362.7c-8.8-0.5-40.7-25.3-42.8-43.8c-0.7-5.9-5.8-10.1-11.8-9.4c-5.8,0.7-10,5.9-9.4,11.8
		c3.2,28.9,44.6,62.8,63.9,62.8c5.8,0,10.2-4.6,10.4-10.4C373.2,367.9,368.5,363,362.7,362.7z"/>
</g>
<desc>
	Eagle;Eagle;robin;robin;lion;lion;pinson;finch;merle;blackbird;colombe;dove;éléphant;elephant;perroquet;parrot;vautour;vulture;mockingbird;mockingbird;moineau;sparrow;ailé;winged;mammifère;mammalian;skylark;skylark;bluebird;bluebird;faucon;hawk;volant;volant;pachyderme;pachyderm;canari;canary;pigeon;pigeon;choucas;jackdaw;rhinocéros;rhinoceros;tigre;tiger;chameau;camel;faucon;falcon;bécasse;woodcock;léopard;leopard;hibou;owl;colibri;hummingbird;oiseau;bird;morse;walrus;Animaux;Animals;Aigle;Eagle
	</desc>
<rect fill-opacity="0" width="512" height="512"/>
</svg>
