<?xml version="1.0" encoding="utf-8"?>
<!-- Generator: Adobe Illustrator 24.3.0, SVG Export Plug-In . SVG Version: 6.00 Build 0)  -->
<svg version="1.1" id="Layer_1" xmlns="http://www.w3.org/2000/svg" xmlns:xlink="http://www.w3.org/1999/xlink" x="0px" y="0px"
	 viewBox="0 0 512 512" enable-background="new 0 0 512 512" xml:space="preserve">
	 <title>Cerf</title>
<path d="M493.1,17.2C484.5,6.3,471.9,0,458.7,0c-5.2,0-9.9,2-13.2,5.7c-8.2,9.1-6.5,24.9-4.3,45c0.7,6.2,1.6,15.3,1.8,23
	c-13.5-15.9-30.8-34.5-48.1-35.2c-7.2-0.4-13.3,2.2-18.3,7.3c-16.4,16.4,3.2,36.4,20.5,54.1c8.6,8.7,26.4,27,22.2,31.2
	c-4.9,4.9-7.6,5-20.7-5.5c-7.3-5.9-21-16.8-32.6-5.2c-12.3,12.3-2.7,24.5,1.3,29.7c4.9,6.4,7.9,10.6,6.4,18.5
	c-3.5,18.4-46,32.7-86.6,40.2c-0.6-1.2-1.3-2.3-2.3-3.3c-2.4-2.3-5.6-3.1-8.6-2.7c-2-3.7-6.1-6-10.5-5.5c-2.7,0.3-6.1,1.2-9.6,2.9
	c-3.5-1.7-6.8-2.6-9.5-2.9c-4.4-0.4-8.5,1.9-10.5,5.5c-3.1-0.4-6.2,0.4-8.6,2.7c-1,1-1.8,2.1-2.3,3.3c-40.6-7.5-83-21.8-86.6-40.2
	c-1.5-7.8,1.5-12.1,6.4-18.5c4.1-5.2,13.6-17.5,1.3-29.7c-11.7-11.6-25.3-0.7-32.6,5.2c-13.1,10.5-15.8,10.4-20.7,5.5
	c-4.2-4.2,13.6-22.4,22.2-31.2c17.3-17.7,36.9-37.8,20.5-54.1c-5.1-5-11-7.6-18.3-7.3c-17.3,0.7-34.6,19.3-48.1,35.2
	c0.1-7.8,1.1-16.8,1.8-23c2.2-20.1,3.8-35.9-4.3-45C63.2,2,58.5,0,53.3,0C40.1,0,27.5,6.3,18.9,17.2c-10.5,13.3-20.4,40-8,92
	c15.6,65.3,92.9,111.7,139.1,139.5c6.8,4.1,14,8.4,19.9,12.2c-22.6,4.2-48.3,5.8-55.7-1.7c-7.1-7.1-31.7-29.9-49.6-22.5
	c-3.4,1.4-11.3,6.1-11.3,19.4c0,28.9,63,82.9,86.6,102.1c4.9,18.2,24.2,89.4,31.8,105.2c6.4,13.4,19.1,16.8,27.5,19
	c1.2,0.3,2.6,0.7,3.8,1.1c2.9,17.8,28.9,28.6,53.1,28.6s50.1-10.8,53.1-28.6c1.2-0.4,2.6-0.7,3.8-1.1c8.4-2.2,21-5.6,27.5-19
	c7.6-15.8,26.9-87,31.8-105.2c23.6-19.2,86.6-73.2,86.6-102.1c0-13.3-7.9-18-11.3-19.4c-17.8-7.4-42.5,15.3-49.6,22.5
	c-7.4,7.4-33.1,5.9-55.7,1.7c5.9-3.8,13.1-8.1,19.9-12.2c46.2-27.8,123.5-74.2,139.1-139.5C513.5,57.2,503.6,30.4,493.1,17.2z
	 M480.3,104.2c-13.5,56.6-86,100.1-129.3,126.1c-29.4,17.7-41.6,25-41.6,36.3c0,4.8,3.2,9,7.8,10.3c12.1,3.4,73.8,19.2,95.7-2.7
	c10.3-10.3,19.6-15.6,24.4-17.2c-2,14.3-43,55.8-81.3,86.7c-1.8,1.4-3.1,3.4-3.6,5.6c-6.6,24.8-25.1,91.9-31.3,104.8
	c-2,4.2-6.5,5.7-13.7,7.7c-6.7,1.8-19.3,5.2-19.2,17.8c-1.2,3.2-13.8,11.1-32.1,11.1s-30.9-7.9-32-10.7c0-13.1-12.6-16.5-19.3-18.3
	c-7.2-1.9-11.7-3.4-13.7-7.7c-6.2-12.9-24.7-80-31.3-104.8c-0.6-2.2-1.9-4.1-3.6-5.6c-37.1-29.8-76.7-69.6-80.8-86.5
	c4.9,1.7,13.9,7,24,17c22,22,83.6,6.1,95.7,2.7c4.6-1.3,7.8-5.5,7.8-10.3c0-11.3-12.2-18.7-41.6-36.3C118,204.2,45.5,160.6,32,104.1
	c-11-46-2.2-66,3.9-73.8c5.1-6.5,11.2-8.4,15.3-8.9c1,5.6-0.4,18.8-1.3,27c-2.3,21.5-4.7,43.6,6.8,55.1c4,4,11.1,4,15.1,0
	c2.5-2.5,5.7-6.4,9.6-10.9c8.8-10.5,27.2-32.4,37-32.8c0.2,0,0.4,0,0.5,0c0.6,0,0.9,0,1.4-0.1c-0.2,4.7-12.8,17.5-20.3,25.2
	c-18.3,18.8-41.1,42.1-22,61.2c16.6,16.6,33.3,7.9,43.9,0.2c-3.6,6.5-6.3,15.1-4.1,26.3c7.3,38.4,79.6,54,117.8,59.5
	c-0.3,2.1-0.5,4.3-0.5,6.6c-2.4,1.3-4.5,2.8-6.1,4.6c-5.1,5.8-4.8,11.8-4.6,13.5c0.5,4.1,3.3,7.4,6.9,8.7c-4.2,10.7-7,22-7,33
	c0,5.9,4.8,10.7,10.7,10.7c0.5,0,1-0.2,1.5-0.3c0.9,1.6,2,3,3.6,4c1.7,1.1,3.7,1.6,5.6,1.6c3.6,0,7-1.8,9-5c0.1-0.2,0.8-1.3,1.6-2.7
	c0.9,1.5,1.5,2.5,1.6,2.7c2,3.2,5.5,5,9,5c1.9,0,3.9-0.5,5.7-1.6c1.6-1,2.7-2.4,3.6-4c0.5,0.1,0.9,0.3,1.5,0.3
	c5.9,0,10.7-4.8,10.7-10.7c0-11.1-2.8-22.3-7-33.1c3.6-1.3,6.5-4.6,7-8.7c0.2-1.7,0.5-7.7-4.6-13.5c-1.6-1.9-3.8-3.3-6.1-4.6
	c0-2.4-0.3-4.5-0.5-6.6c38.2-5.6,110.4-21.1,117.8-59.5c2.2-11.2-0.5-19.8-4.1-26.3c10.6,7.8,27.3,16.4,43.9-0.2
	c19.1-19.1-3.7-42.5-22-61.2c-7.5-7.7-20.1-20.6-20.7-24.1c1-1,1.8-1.1,2.3-1c9.8,0.4,28.2,22.3,37,32.8c3.8,4.6,7.1,8.5,9.6,10.9
	c4,4,11.1,4,15.1,0c11.4-11.4,9-33.6,6.8-55.1c-0.9-8.3-2.3-21.4-1.3-27c4.2,0.5,10.2,2.4,15.3,8.9
	C482.5,38.2,491.3,58.2,480.3,104.2z"/>
<desc>
	Cerf;Deer;sanglier;boar;truie;sow;lapin;rabbit;biche;doe;mammifère;mammal;renard;fox;rongeur;rodent;antilope;antelope;warren;warren;bison;bison;venaison;venison;lièvre;hare;souris;mouse;pochette;pouched;chat;cat;coyote;coyote;buck;buck;furet;ferret;musaraigne;shrew;rat;rat;mole;mole;munch;munch;bonhomme de neige;snowman;cochon;pig;tortue;tortoise;loup;wolf;parcourir;browse;mammouth;mammoth;espèces;species;écureuil;squirrel;Animaux;Animals
	</desc>
<rect fill-opacity="0" width="512" height="512"/>
</svg>
