<?xml version="1.0" encoding="utf-8"?>
<!-- Generator: Adobe Illustrator 24.3.0, SVG Export Plug-In . SVG Version: 6.00 Build 0)  -->
<svg version="1.1" id="Layer_1" xmlns="http://www.w3.org/2000/svg" xmlns:xlink="http://www.w3.org/1999/xlink" x="0px" y="0px"
	 viewBox="0 0 512 512" enable-background="new 0 0 512 512" xml:space="preserve">
<title>Vache</title>
<g>
	<path d="M181.3,384c-5.9,0-10.7,4.8-10.7,10.7c0,5.9,4.8,10.7,10.7,10.7c4.2,0,9.3,8.3,11.2,14c1.5,4.5,5.7,7.3,10.1,7.3
		c1.1,0,2.2-0.1,3.3-0.5c5.6-1.8,8.6-7.9,6.8-13.5C211.8,409.8,202.8,384,181.3,384z"/>
	<path d="M330.7,384c-21.4,0-30.5,25.7-31.5,28.7c-1.8,5.6,1.2,11.6,6.8,13.5c1.1,0.4,2.2,0.5,3.3,0.5c4.5,0,8.7-2.8,10.1-7.3
		c1.6-5,6.8-14,11.2-14c5.9,0,10.7-4.8,10.7-10.7S336.5,384,330.7,384z"/>
	<path d="M510.3,175.6c-20.3-32.2-49.5-43.3-77.3-46.9c41.8-29.8,51.7-84.1,56.2-109.2l1.3-6.8c1-5.4-2.1-10.7-7.4-12.2
		c-5.3-1.6-10.8,1.1-12.9,6.1C445.4,66,358,85.3,330.7,85.3c-1.2,0-2.2,0.3-3.3,0.7c-19.4-13.6-41.1-22-60.7-22h-21.3
		c-19.6,0-41.3,8.4-60.7,22c-1.1-0.3-2.1-0.7-3.3-0.7C154,85.3,66.5,66,41.9,6.6C39.8,1.5,34.2-1.2,29,0.5
		c-5.2,1.6-8.4,6.9-7.4,12.2l1.3,6.8C27.3,44.6,37.2,99,79,128.7c-27.8,3.5-57,14.7-77.3,46.9c-3,4.8-1.8,11,2.7,14.3
		c2.4,1.7,54.8,39.5,103.3,44.2c-0.6,3.5-1,7.1-1,11.1c0,18.6,11.2,31.7,22.1,44.5c10.3,12.1,20.1,23.6,20.6,39.6L139,370.8
		c-0.2,0.6,0,1.2-0.1,1.8C132.4,382,128,395.7,128,416c0,16.5,6.8,42.3,46.1,50.6c3.1,3.2,6.1,6.4,9,9.6
		C198.3,493,215.4,512,256,512s57.7-19,72.9-35.8c2.9-3.2,5.8-6.4,9-9.6c39.4-8.3,46.2-34.1,46.2-50.6c0-20.3-4.4-34-10.9-43.4
		c0-0.6,0.1-1.2-0.1-1.8l-10.3-41.3c0.5-16.1,10.3-27.5,20.6-39.6c10.8-12.7,22.1-25.8,22.1-44.4c0-4.1-0.5-7.7-1-11.1
		c48.5-4.7,100.9-42.5,103.3-44.2C512.2,186.7,513.4,180.4,510.3,175.6z M457.8,58.7c-11.6,33-35.7,67-90.5,69
		c-5.1-8.1-11.2-15.7-17.9-22.7C377.2,100.9,423.8,88.6,457.8,58.7z M54.2,58.7c33.9,29.9,80.6,42.2,108.5,46.2
		c-6.7,7-12.8,14.6-17.9,22.7C89.9,125.7,65.9,91.7,54.2,58.7z M25.7,178.6c26.2-32.1,65.7-30.7,98-29.6c3.7,0.1,7,0.2,10.3,0.2
		c-3.8,10.4-6.1,21.2-6.1,32.1c0,9.3-3.7,15.5-8.4,23.3c-1.6,2.6-3.2,5.5-4.8,8.5C81.7,212,42.8,189.6,25.7,178.6z M145,275.9
		c-9.1-10.6-17-19.9-17-30.6c0-13.3,4.6-20.9,9.9-29.8c5.4-8.9,11.5-19,11.5-34.2c0-11,3.1-22,8.2-32.5c0.8,0.2,1.6,0.5,2.5,0.5
		c20.9,0,22.3,2.9,33,25.9l2.2,5c3.9,9.2,8.7,20.5,22.3,30.9c17.4,13.3,17.2,43.8,17.2,55.3c-0.3,2.8-5,11.9-8.1,17.9
		c-5.9,11.3-11.6,22.8-12.8,32.5c-3.6,4.5-6.5,9.3-9.1,13.7c-3,5.2-5.8,10.1-9.6,13.9c-2.7,2.7-9.1,4.2-16,5.7
		c-4.3,1-9.1,2.2-14,3.8l5.2-20.8c0.2-0.8,0.3-1.7,0.3-2.6C170.7,306.1,157,290.1,145,275.9z M256,490.7c-26.3,0-38.6-9.1-50.5-21.7
		c13.2-0.9,22-6.9,28.9-12.1c6.8-5,12.1-8.9,21.5-8.9s14.8,3.9,21.5,8.9c7,5.1,15.7,11.2,28.9,12.1
		C294.5,481.5,282.3,490.7,256,490.7z M309.3,448c-7.9,0-12.6-3.5-19.1-8.3c-7.9-5.8-17.8-13.1-34.2-13.1s-26.3,7.3-34.2,13.1
		c-6.5,4.8-11.2,8.3-19.1,8.3c-35.4,0-53.3-10.8-53.3-32c0-37.1,15.3-40.6,34.6-45c9.5-2.2,19.2-4.4,26.3-11.4
		c5.8-5.7,9.6-12.4,13-18.3c7.4-12.8,12.3-21.2,32.8-21.2s25.4,8.4,32.8,21.2c3.4,5.9,7.2,12.6,13,18.3c7,7,16.8,9.3,26.3,11.4
		c19.3,4.4,34.6,8,34.6,45C362.7,437.2,344.7,448,309.3,448z M367,275.9c-12.1,14.1-25.7,30.1-25.7,54.7c0,0.9,0.1,1.7,0.3,2.6
		l5.2,20.8c-4.9-1.6-9.7-2.9-14-3.9c-6.8-1.6-13.3-3.1-16-5.7c-3.8-3.8-6.6-8.7-9.6-13.9c-8.2-14.2-18.4-31.9-51.3-31.9
		c-5.1,0-9.4,0.5-13.5,1.3c1-2,2.1-4.1,3-5.8c6.5-12.6,10.5-20.7,10.5-29c0.1-12.7,0.3-51.2-25.5-70.9c-9.1-7-12.1-14.1-15.6-22.3
		c-0.8-2-1.6-3.9-2.8-6.4c-9.7-20.8-16.1-34.2-41.7-36.9c19.9-25,50.4-43.2,75-43.2h21.3c40.1,0,96,48.4,96,96
		c0,15.3,6.1,25.3,11.5,34.2c5.3,8.8,9.9,16.4,9.9,29.8C384,256.1,376.1,265.3,367,275.9z M397.2,213.1c-1.6-3.1-3.3-5.9-4.9-8.5
		c-4.7-7.8-8.4-13.9-8.4-23.3c0-10.9-2.2-21.7-6.1-32.1c3.3-0.1,6.6-0.1,10.3-0.2c32.3-1.2,71.8-2.5,98,29.6
		C469.2,189.6,430.2,212,397.2,213.1z"/>
	<path d="M213.3,245.3c0-17.6-14.4-32-32-32s-32,14.3-32,32s14.4,32,32,32S213.3,263,213.3,245.3z M170.7,245.3
		c0-5.9,4.8-10.7,10.7-10.7s10.7,4.8,10.7,10.7s-4.8,10.7-10.7,10.7C175.4,256,170.7,251.2,170.7,245.3z"/>
	<path d="M330.7,213.3c-17.6,0-32,14.4-32,32s14.4,32,32,32s32-14.4,32-32S348.3,213.3,330.7,213.3z M330.7,256
		c-5.9,0-10.7-4.8-10.7-10.7s4.8-10.7,10.7-10.7c5.9,0,10.7,4.8,10.7,10.7S336.5,256,330.7,256z"/>
</g>
<desc>
	Vache;Cow;agraire;agrarian;laitière;milkmaid;terres agricoles;farmland;produits laitiers;dairy;nomade;nomad;boeuf;ox;pâturage;grazing;bétail;cattle;bâtard;bastard;génisse;heifer;ferme;farm;éleveur;rancher;bovin;bovine;volaille;poultry;agriculteur;farmer;bringé;brindled;bétail;livestock;buffle;buffalo;rural;rural;taureau;bull;poule;hen;vache;cowhand;beurre;butter;tilth;tilth;lait;milk;arable;arable;crémerie;creamery;agriculture;agriculture;aurochs;aurochs;ranch;ranch;Animaux;Animals
	</desc>
<rect fill-opacity="0" width="512" height="512"/>
</svg>
