<?xml version="1.0" encoding="utf-8"?>
<!-- Generator: Adobe Illustrator 24.3.0, SVG Export Plug-In . SVG Version: 6.00 Build 0)  -->
<svg version="1.1" id="Layer_1" xmlns="http://www.w3.org/2000/svg" xmlns:xlink="http://www.w3.org/1999/xlink" x="0px" y="0px"
	 viewBox="0 0 512 512" enable-background="new 0 0 512 512" xml:space="preserve">
<title>Cygne</title>
<path d="M511.5,316.8c-0.9-2.7-2.8-5-5.4-6.3l-15.7-7.9c14.7-30.3,21.1-53.9,21.3-54.6c0-0.2,0-0.3,0-0.5c0.1-0.3,0-0.5,0.1-0.8
	c0.2-1.7,0-3.3-0.5-4.9c-0.1-0.2,0-0.5-0.1-0.7c-0.1-0.1-0.2-0.2-0.2-0.3c-0.7-1.6-1.9-3-3.3-4.1c-0.4-0.3-0.7-0.4-1.1-0.7
	c-0.6-0.3-1-0.7-1.7-0.9c-1.3-0.5-34.2-11.2-152.8-11.2c-86.9,0-171.1,64.6-213.8,103.3c10.3-17.1,27.6-33.2,49.6-53.5
	c10.4-9.6,21.5-19.9,33.1-31.5c34.6-34.7,44.5-107.2,21.9-161.7c-18.7-45.1-55.7-69.9-104.1-69.9C47.1,10.7,0.6,53.4,0.1,137.4
	c0,0.1,0,0.2,0,0.2c0,0.4-0.1,0.6-0.1,1c0,0.9,0.1,1.7,0.3,2.6c0,0.1,0.1,0.3,0.1,0.5l0,0l0.1,0.3c0.5,1.8,1.2,4.3,2.2,7.2
	l29.8,99.2c1.3,4.4,5.2,7.4,9.8,7.6c0.1,0,0.3,0,0.5,0c4.4,0,8.3-2.6,9.9-6.7l31-77.5c8.3-9.4,12.4-23.6,12.4-33.1
	c0-5.1,6.4-21.3,21.3-21.3c18.7,0,32,2.3,32,32c0,32.1-17.6,55.9-50.2,88.4c-5.1,5.1-11.1,10.6-17.6,16.6C47.1,286,0,329.4,0,384
	c0,62.5,49.8,117.3,106.7,117.3c35.9,0,55.2-5.7,64-9.4c10.3,4.1,33.6,9.4,85.3,9.4c37.7,0,167.6-12.7,254.7-176.3
	C512.1,322.5,512.4,319.5,511.5,316.8z M44.1,213l-9.6-32c5.3-0.5,9.4-2,12.1-4c3,1.6,6.7,2.8,10.6,3.5L44.1,213z M256,480
	c-63.6,0-78.5-8.3-78.7-8.3c-3.5-2.8-8.7-3-12.5-0.6c-0.1,0.1-14.8,8.9-58.1,8.9c-40.4,0-85.3-39.4-85.3-96
	c0-45.2,43.1-84.9,74.6-113.9c6.8-6.2,13-11.9,18.3-17.2c29.7-29.8,56.4-60.1,56.4-103.6C170.7,96,132,96,117.4,96
	c-26.8,0-40.8,24.2-42.4,39.8l-9.5,23.7c-0.5,0.3-1,0.5-1.5,0.5c-8,0-12.5-5.9-12.5-6c-2.9-4.3-8.5-6-13.2-3.9
	c-3.9,1.7-6.3,5.5-6.3,9.5c-2.9-2.4-6.9-10.8-9.6-19.3l-0.9-3.1c0-2.7,0.1-5.4,0.2-8.1c0.5,5.4,4.9,9.6,10.5,9.6
	c5.9,0,10.7-4.8,10.7-10.7s-4.8-10.7-10.7-10.7c-5.2,0-9.3,3.8-10.3,8.7c2.6-43.6,21.2-94,116.9-94c50.3,0,73.7,30.8,84.4,56.7
	c18.9,45.6,10.8,110.3-17.3,138.4c-11.4,11.4-22.3,21.5-32.5,31c-37.2,34.5-66.6,61.7-66.6,104.6c0,4.4,2.7,8.4,6.8,9.9
	c4.1,1.6,8.8,0.5,11.7-2.8c1.1-1.2,114.7-124.5,226.8-124.5c29.9,0,54.1,0.7,73.7,1.7c-75,19.1-168.3,56.8-189.2,88.4
	c-3.2,4.9-1.9,11.5,3,14.8c4.9,3.2,11.5,1.9,14.8-3c20-30.2,145-76.6,217.8-88.4c-47.7,44.4-133.9,114.5-184,114.5
	c-5.9,0-10.7,4.8-10.7,10.7s4.8,10.7,10.7,10.7c56.9,0,141.1-68.2,187.4-110.1c-23,51.3-73.7,131.4-166.1,131.4
	c-137.5,0-165.7-9.6-166.6-9.9c-5.4-2.2-11.7,0.3-13.9,5.8c-2.2,5.4,0.3,11.7,5.8,13.9c2.8,1.2,31.9,11.5,174.7,11.5
	c87.5,0,141.3-62.6,171.2-115.8l6.1,3.1C405.3,468.6,290,480,256,480z"/>
<desc>
	Swan;Swan;oie;goose;cygnet;cygnet;héron;heron;sterne;tern;aigrette;egret;goéland;gull;flamingo;flamingo;poulet;chicken;spatule;spoonbill;poussin;chick;lac;lake;leurre;decoy;canard;duck;palmé;webbed;nid;nest;albatros;albatross;grimacer;wince;cormoran;cormorant;blanc;white;trappe;hatch;dinde;turkey;oiseau;bird;voler;flying;picorer;peck;choucas;jackdaw;volaille;poultry;caille;quail;poule;hen;coq;cockerel;coopérative;coop;Animaux;Animals;Cygne;Swan
	</desc>
<rect fill-opacity="0" width="512" height="512"/>
</svg>
