<?xml version="1.0" encoding="utf-8"?>
<!-- Generator: Adobe Illustrator 24.3.0, SVG Export Plug-In . SVG Version: 6.00 Build 0)  -->
<svg version="1.1" id="Layer_1" xmlns="http://www.w3.org/2000/svg" xmlns:xlink="http://www.w3.org/1999/xlink" x="0px" y="0px"
	 viewBox="0 0 512 512" enable-background="new 0 0 512 512" xml:space="preserve">
<title>Dauphin</title>
<g>
	<path d="M436.3,109.9C431,47.4,359.7,0,298,0c-61.4,0-109.2,25.5-132.1,52.4c-14.7-4.1-33.2-6.7-53.5-2.3
		c-31,6.7-57.8,27.4-79.4,61.5c-2.5,4-2.2,9.2,0.9,12.7c3.1,3.6,8.2,4.7,12.4,2.8c20.3-9,52.7-3.3,76.1,3.4
		c-15.3,22.6-27.1,61.8-27.1,93.5c0,34.6,52,161.1,126.3,198.2c-1.2,3.7-2.9,7.8-4.7,12.2c-6.3,15.5-15,36.6-15,66.9
		c0,4.3,2.6,8.2,6.6,9.9c1.3,0.6,2.7,0.8,4.1,0.8c2.8,0,5.5-1.1,7.5-3.1c19.1-19.1,28-19.7,36.7-20.3c7.5-0.5,16.8-1.2,27.3-11.7
		c9.2-9.1,14.9-17.3,18.5-23.6c18.1,9.5,47.5,15.1,76.5-7.5c12.6-9.9,21-18.1,27.7-24.8c14-13.8,17.7-17.6,39.5-15.7
		c5.3,0.5,9.9-2.9,11.2-7.9c1.3-5-1.1-10.2-5.8-12.4c-3.7-1.7-7.3-3.6-11-5.5c-15.3-7.9-32.6-16.8-57.5-16.8
		c-22.7,0-62.7,6.5-79.5,9.5c-4.2-8.3-11.2-24.1-16.8-43c-0.1-0.7-0.3-1.4-0.6-2.1c-7.3-25.8-11.2-56.9-1-84.4
		c16,2.3,34.4,6.7,51.7,12.9c3.3,1.2,6.9,0.7,9.7-1.3c2.8-2,4.5-5.2,4.5-8.7c0-24.4-6.8-46.4-21.4-67.7c7.2-2.8,21.6-7,42.8-7
		c18.8,0,38.5,7.2,54.3,13c12.7,4.6,22.6,8.3,31,8.3c11,0,19.9-8.9,22.1-22C483.3,151.5,473.4,125.4,436.3,109.9z M257.8,284.6
		c-8.2-14.3-12.7-27.1-12.3-40.8c3.2-2.2,9.6-3.1,17.8-3.1C258.8,255.1,257.3,270,257.8,284.6z M233.2,226.4
		c-6.4,4.5-9.9,11.2-9.9,18.9c0,29.3,16.9,54.6,42.8,89c8.9,30.6,21.6,53.1,22.6,54.9c2.3,3.9,6.6,6,11.2,5.2
		c0.6-0.1,56.7-10.5,83.4-10.5c10.9,0,20,2.2,28.4,5.4c-6.8,3.8-12.6,9.3-19.8,16.4c-6.3,6.3-14.1,14-25.8,23.1
		c-31.7,24.7-60,1.3-61.1,0.4c-2.8-2.5-6.8-3.1-10.3-2s-6.3,4.1-7.1,7.7c0,0.1-2.8,11.1-18.5,26.8c-4.9,4.9-7.5,5.1-13.8,5.5
		c-7.4,0.5-16.7,1.2-29.7,9.5c2.7-13.8,7.2-24.8,11.1-34.3c3.8-9.2,7-17.2,7.9-25.3c0.5-4.8-2.2-9.3-6.7-11.1
		c-69.7-27.5-121.2-154-121.2-182c0-30,12.8-70,27.2-86.4c0.2,0.1,0.5,0.2,0.8,0.3c1.3,0.6,2.7,0.8,4.1,0.8c4.2,0,8.2-2.5,9.9-6.6
		c2.3-5.4-0.3-11.7-5.8-13.9c-2.3-0.9-46.2-18.8-85.2-16.9C82.2,85.1,98.6,75,116.7,71c36.7-8,68.5,12.3,68.8,12.5
		c5,3.2,11.5,1.9,14.8-3.1c3.2-4.9,1.8-11.5-3.1-14.7c-0.5-0.3-4.1-2.6-9.9-5.4c21.2-20.7,60.6-39.1,110.7-39.1
		c59.2,0,117.3,47.6,117.3,96c0,1.4,0.7,2.6,1.2,3.9c-19-8-39.2-14.5-54.9-14.5c-2.5,0.1-61.5,2.3-91.1,23.3
		c-2.8,1.9-4.4,5.1-4.5,8.4c-0.1,3.4,1.4,6.6,4.1,8.7c36.1,28.2,54.4,53.8,58.8,83.4C303.7,223.1,254.2,211.6,233.2,226.4z
		 M434.3,163.7c-17.5-6.4-39.1-14.3-61.7-14.3c-31.4,0-50.9,8.2-56.7,11.1c-6-6.6-12.6-13.2-20.2-19.9c22.2-9,54-12.1,66.2-12.6
		c26.4,0,75.6,25.9,96.9,38.6c-0.4,2.3-0.9,3.9-0.9,4.1C453.4,170.7,443.7,167.1,434.3,163.7z"/>
	<circle cx="319.3" cy="74.7" r="10.7"/>
</g>
<desc>
	Dolphin;Dolphin;cétacé;cetacean;thon;tuna;baleine;whale;baleinier;whaler;marsouin;porpoise;requin;shark;fanons;baleen;pingouin;penguin;hareng;herring;maquereau;mackerel;graisse;blubber;poisson;fish;scad;scad;saumon;salmon;sardine;sardine;gardon;roach;mer;sea;spermaceti;spermaceti;vêlage;calve;harpon;harpoon;loutre;otter;antarctique;antarctica;pêcheur;fisherman;marine;marine;flet;flounder;piscine;piscine;conserverie;cannery;truite;trout;pêche;fishery;maritime;maritime;Animaux;Animals;Dauphin;Dolphin
	</desc>
<rect fill-opacity="0" width="512" height="512"/>
</svg>
